<svg width="540" height="77" viewBox="0 0 540 77" fill="none" xmlns="http://www.w3.org/2000/svg">
  <mask id="path-1-outside-1_3078_91626" maskUnits="userSpaceOnUse" x="-0.216797" y="0.640137" width="540" height="76" fill="black">
    <rect fill="white" x="-0.216797" y="0.640137" width="540" height="76"/>
    <path d="M58.6112 1.64014C65.4512 1.64014 71.5712 2.50414 76.9712 4.23214C82.4432 5.88814 87.2672 8.40814 91.4432 11.7921L81.2912 27.9921C77.9072 25.6161 74.3432 23.7081 70.5992 22.2681C66.9272 20.8281 62.9312 20.1081 58.6112 20.1081C56.7392 20.1081 55.2272 20.2521 54.0752 20.5401C52.9952 20.8281 52.2032 21.2241 51.6992 21.7281C51.2672 22.2321 51.0512 22.8081 51.0512 23.4561C51.0512 24.3201 51.6992 24.9681 52.9952 25.4001C54.3632 25.8321 56.0552 26.3001 58.0712 26.8041L67.8992 29.0721C75.1712 30.7281 80.6432 33.1761 84.3152 36.4161C88.0592 39.6561 89.9312 44.1561 89.9312 49.9161C89.9312 55.6761 88.5272 60.4281 85.7192 64.1721C82.9112 67.8441 79.0952 70.5801 74.2712 72.3801C69.5192 74.1801 64.1192 75.0801 58.0712 75.0801C53.5352 75.0801 48.9992 74.6841 44.4632 73.8921C39.9272 73.0281 35.7152 71.8041 31.8272 70.2201C27.9392 68.5641 24.5912 66.5841 21.7832 64.2801L31.7192 47.7561C33.8072 49.4121 36.3272 50.9241 39.2792 52.2921C42.2312 53.5881 45.2912 54.6321 48.4592 55.4241C51.6272 56.2161 54.5792 56.6121 57.3152 56.6121C59.0432 56.6121 60.4112 56.4681 61.4192 56.1801C62.4272 55.8921 63.1112 55.5321 63.4712 55.1001C63.9032 54.5961 64.1192 54.0201 64.1192 53.3721C64.1192 52.3641 63.6872 51.6081 62.8232 51.1041C62.0312 50.6001 60.5552 50.0961 58.3952 49.5921L47.5952 47.2161C43.7792 46.3521 40.1432 45.2001 36.6872 43.7601C33.2312 42.3201 30.4232 40.2321 28.2632 37.4961C26.1032 34.6881 25.0232 30.9081 25.0232 26.1561C25.0232 21.2601 26.3192 16.9761 28.9112 13.3041C31.5752 9.63214 35.3912 6.78813 40.3592 4.77213C45.3992 2.68414 51.4832 1.64014 58.6112 1.64014Z" />
  </mask>
  <path d="M58.6112 1.64014C65.4512 1.64014 71.5712 2.50414 76.9712 4.23214C82.4432 5.88814 87.2672 8.40814 91.4432 11.7921L81.2912 27.9921C77.9072 25.6161 74.3432 23.7081 70.5992 22.2681C66.9272 20.8281 62.9312 20.1081 58.6112 20.1081C56.7392 20.1081 55.2272 20.2521 54.0752 20.5401C52.9952 20.8281 52.2032 21.2241 51.6992 21.7281C51.2672 22.2321 51.0512 22.8081 51.0512 23.4561C51.0512 24.3201 51.6992 24.9681 52.9952 25.4001C54.3632 25.8321 56.0552 26.3001 58.0712 26.8041L67.8992 29.0721C75.1712 30.7281 80.6432 33.1761 84.3152 36.4161C88.0592 39.6561 89.9312 44.1561 89.9312 49.9161C89.9312 55.6761 88.5272 60.4281 85.7192 64.1721C82.9112 67.8441 79.0952 70.5801 74.2712 72.3801C69.5192 74.1801 64.1192 75.0801 58.0712 75.0801C53.5352 75.0801 48.9992 74.6841 44.4632 73.8921C39.9272 73.0281 35.7152 71.8041 31.8272 70.2201C27.9392 68.5641 24.5912 66.5841 21.7832 64.2801L31.7192 47.7561C33.8072 49.4121 36.3272 50.9241 39.2792 52.2921C42.2312 53.5881 45.2912 54.6321 48.4592 55.4241C51.6272 56.2161 54.5792 56.6121 57.3152 56.6121C59.0432 56.6121 60.4112 56.4681 61.4192 56.1801C62.4272 55.8921 63.1112 55.5321 63.4712 55.1001C63.9032 54.5961 64.1192 54.0201 64.1192 53.3721C64.1192 52.3641 63.6872 51.6081 62.8232 51.1041C62.0312 50.6001 60.5552 50.0961 58.3952 49.5921L47.5952 47.2161C43.7792 46.3521 40.1432 45.2001 36.6872 43.7601C33.2312 42.3201 30.4232 40.2321 28.2632 37.4961C26.1032 34.6881 25.0232 30.9081 25.0232 26.1561C25.0232 21.2601 26.3192 16.9761 28.9112 13.3041C31.5752 9.63214 35.3912 6.78813 40.3592 4.77213C45.3992 2.68414 51.4832 1.64014 58.6112 1.64014Z" fill="black" mask="url(#path-1-outside-1_3078_91626)"/>
</svg>
